<?xml version="1.0" encoding="utf-8"?>
<svg xmlns="http://www.w3.org/2000/svg" xmlns:xlink="http://www.w3.org/1999/xlink" style="margin: auto; background: none; display: block; shape-rendering: auto;" width="98px" height="98px" viewBox="0 0 100 100" preserveAspectRatio="xMidYMid">
<g transform="rotate(0 50 50)">
  <rect x="46.5" y="24.5" rx="3.5" ry="2.5" width="7" height="5" fill="#6a6a6a">
    <animate attributeName="opacity" values="1;0" keyTimes="0;1" dur="1.6393442622950818s" begin="-1.6162549064881087s" repeatCount="indefinite"></animate>
  </rect>
</g><g transform="rotate(5.070422535211268 50 50)">
  <rect x="46.5" y="24.5" rx="3.5" ry="2.5" width="7" height="5" fill="#6a6a6a">
    <animate attributeName="opacity" values="1;0" keyTimes="0;1" dur="1.6393442622950818s" begin="-1.5931655506811357s" repeatCount="indefinite"></animate>
  </rect>
</g><g transform="rotate(10.140845070422536 50 50)">
  <rect x="46.5" y="24.5" rx="3.5" ry="2.5" width="7" height="5" fill="#6a6a6a">
    <animate attributeName="opacity" values="1;0" keyTimes="0;1" dur="1.6393442622950818s" begin="-1.5700761948741626s" repeatCount="indefinite"></animate>
  </rect>
</g><g transform="rotate(15.211267605633802 50 50)">
  <rect x="46.5" y="24.5" rx="3.5" ry="2.5" width="7" height="5" fill="#6a6a6a">
    <animate attributeName="opacity" values="1;0" keyTimes="0;1" dur="1.6393442622950818s" begin="-1.5469868390671897s" repeatCount="indefinite"></animate>
  </rect>
</g><g transform="rotate(20.281690140845072 50 50)">
  <rect x="46.5" y="24.5" rx="3.5" ry="2.5" width="7" height="5" fill="#6a6a6a">
    <animate attributeName="opacity" values="1;0" keyTimes="0;1" dur="1.6393442622950818s" begin="-1.5238974832602168s" repeatCount="indefinite"></animate>
  </rect>
</g><g transform="rotate(25.35211267605634 50 50)">
  <rect x="46.5" y="24.5" rx="3.5" ry="2.5" width="7" height="5" fill="#6a6a6a">
    <animate attributeName="opacity" values="1;0" keyTimes="0;1" dur="1.6393442622950818s" begin="-1.5008081274532437s" repeatCount="indefinite"></animate>
  </rect>
</g><g transform="rotate(30.422535211267604 50 50)">
  <rect x="46.5" y="24.5" rx="3.5" ry="2.5" width="7" height="5" fill="#6a6a6a">
    <animate attributeName="opacity" values="1;0" keyTimes="0;1" dur="1.6393442622950818s" begin="-1.4777187716462707s" repeatCount="indefinite"></animate>
  </rect>
</g><g transform="rotate(35.49295774647887 50 50)">
  <rect x="46.5" y="24.5" rx="3.5" ry="2.5" width="7" height="5" fill="#6a6a6a">
    <animate attributeName="opacity" values="1;0" keyTimes="0;1" dur="1.6393442622950818s" begin="-1.4546294158392978s" repeatCount="indefinite"></animate>
  </rect>
</g><g transform="rotate(40.563380281690144 50 50)">
  <rect x="46.5" y="24.5" rx="3.5" ry="2.5" width="7" height="5" fill="#6a6a6a">
    <animate attributeName="opacity" values="1;0" keyTimes="0;1" dur="1.6393442622950818s" begin="-1.4315400600323247s" repeatCount="indefinite"></animate>
  </rect>
</g><g transform="rotate(45.63380281690141 50 50)">
  <rect x="46.5" y="24.5" rx="3.5" ry="2.5" width="7" height="5" fill="#6a6a6a">
    <animate attributeName="opacity" values="1;0" keyTimes="0;1" dur="1.6393442622950818s" begin="-1.4084507042253518s" repeatCount="indefinite"></animate>
  </rect>
</g><g transform="rotate(50.70422535211268 50 50)">
  <rect x="46.5" y="24.5" rx="3.5" ry="2.5" width="7" height="5" fill="#6a6a6a">
    <animate attributeName="opacity" values="1;0" keyTimes="0;1" dur="1.6393442622950818s" begin="-1.3853613484183789s" repeatCount="indefinite"></animate>
  </rect>
</g><g transform="rotate(55.774647887323944 50 50)">
  <rect x="46.5" y="24.5" rx="3.5" ry="2.5" width="7" height="5" fill="#6a6a6a">
    <animate attributeName="opacity" values="1;0" keyTimes="0;1" dur="1.6393442622950818s" begin="-1.3622719926114057s" repeatCount="indefinite"></animate>
  </rect>
</g><g transform="rotate(60.84507042253521 50 50)">
  <rect x="46.5" y="24.5" rx="3.5" ry="2.5" width="7" height="5" fill="#6a6a6a">
    <animate attributeName="opacity" values="1;0" keyTimes="0;1" dur="1.6393442622950818s" begin="-1.3391826368044328s" repeatCount="indefinite"></animate>
  </rect>
</g><g transform="rotate(65.91549295774648 50 50)">
  <rect x="46.5" y="24.5" rx="3.5" ry="2.5" width="7" height="5" fill="#6a6a6a">
    <animate attributeName="opacity" values="1;0" keyTimes="0;1" dur="1.6393442622950818s" begin="-1.31609328099746s" repeatCount="indefinite"></animate>
  </rect>
</g><g transform="rotate(70.98591549295774 50 50)">
  <rect x="46.5" y="24.5" rx="3.5" ry="2.5" width="7" height="5" fill="#6a6a6a">
    <animate attributeName="opacity" values="1;0" keyTimes="0;1" dur="1.6393442622950818s" begin="-1.293003925190487s" repeatCount="indefinite"></animate>
  </rect>
</g><g transform="rotate(76.05633802816901 50 50)">
  <rect x="46.5" y="24.5" rx="3.5" ry="2.5" width="7" height="5" fill="#6a6a6a">
    <animate attributeName="opacity" values="1;0" keyTimes="0;1" dur="1.6393442622950818s" begin="-1.2699145693835139s" repeatCount="indefinite"></animate>
  </rect>
</g><g transform="rotate(81.12676056338029 50 50)">
  <rect x="46.5" y="24.5" rx="3.5" ry="2.5" width="7" height="5" fill="#6a6a6a">
    <animate attributeName="opacity" values="1;0" keyTimes="0;1" dur="1.6393442622950818s" begin="-1.246825213576541s" repeatCount="indefinite"></animate>
  </rect>
</g><g transform="rotate(86.19718309859155 50 50)">
  <rect x="46.5" y="24.5" rx="3.5" ry="2.5" width="7" height="5" fill="#6a6a6a">
    <animate attributeName="opacity" values="1;0" keyTimes="0;1" dur="1.6393442622950818s" begin="-1.223735857769568s" repeatCount="indefinite"></animate>
  </rect>
</g><g transform="rotate(91.26760563380282 50 50)">
  <rect x="46.5" y="24.5" rx="3.5" ry="2.5" width="7" height="5" fill="#6a6a6a">
    <animate attributeName="opacity" values="1;0" keyTimes="0;1" dur="1.6393442622950818s" begin="-1.200646501962595s" repeatCount="indefinite"></animate>
  </rect>
</g><g transform="rotate(96.33802816901408 50 50)">
  <rect x="46.5" y="24.5" rx="3.5" ry="2.5" width="7" height="5" fill="#6a6a6a">
    <animate attributeName="opacity" values="1;0" keyTimes="0;1" dur="1.6393442622950818s" begin="-1.177557146155622s" repeatCount="indefinite"></animate>
  </rect>
</g><g transform="rotate(101.40845070422536 50 50)">
  <rect x="46.5" y="24.5" rx="3.5" ry="2.5" width="7" height="5" fill="#6a6a6a">
    <animate attributeName="opacity" values="1;0" keyTimes="0;1" dur="1.6393442622950818s" begin="-1.154467790348649s" repeatCount="indefinite"></animate>
  </rect>
</g><g transform="rotate(106.47887323943662 50 50)">
  <rect x="46.5" y="24.5" rx="3.5" ry="2.5" width="7" height="5" fill="#6a6a6a">
    <animate attributeName="opacity" values="1;0" keyTimes="0;1" dur="1.6393442622950818s" begin="-1.131378434541676s" repeatCount="indefinite"></animate>
  </rect>
</g><g transform="rotate(111.54929577464789 50 50)">
  <rect x="46.5" y="24.5" rx="3.5" ry="2.5" width="7" height="5" fill="#6a6a6a">
    <animate attributeName="opacity" values="1;0" keyTimes="0;1" dur="1.6393442622950818s" begin="-1.108289078734703s" repeatCount="indefinite"></animate>
  </rect>
</g><g transform="rotate(116.61971830985915 50 50)">
  <rect x="46.5" y="24.5" rx="3.5" ry="2.5" width="7" height="5" fill="#6a6a6a">
    <animate attributeName="opacity" values="1;0" keyTimes="0;1" dur="1.6393442622950818s" begin="-1.0851997229277301s" repeatCount="indefinite"></animate>
  </rect>
</g><g transform="rotate(121.69014084507042 50 50)">
  <rect x="46.5" y="24.5" rx="3.5" ry="2.5" width="7" height="5" fill="#6a6a6a">
    <animate attributeName="opacity" values="1;0" keyTimes="0;1" dur="1.6393442622950818s" begin="-1.062110367120757s" repeatCount="indefinite"></animate>
  </rect>
</g><g transform="rotate(126.7605633802817 50 50)">
  <rect x="46.5" y="24.5" rx="3.5" ry="2.5" width="7" height="5" fill="#6a6a6a">
    <animate attributeName="opacity" values="1;0" keyTimes="0;1" dur="1.6393442622950818s" begin="-1.039021011313784s" repeatCount="indefinite"></animate>
  </rect>
</g><g transform="rotate(131.83098591549296 50 50)">
  <rect x="46.5" y="24.5" rx="3.5" ry="2.5" width="7" height="5" fill="#6a6a6a">
    <animate attributeName="opacity" values="1;0" keyTimes="0;1" dur="1.6393442622950818s" begin="-1.0159316555068112s" repeatCount="indefinite"></animate>
  </rect>
</g><g transform="rotate(136.90140845070422 50 50)">
  <rect x="46.5" y="24.5" rx="3.5" ry="2.5" width="7" height="5" fill="#6a6a6a">
    <animate attributeName="opacity" values="1;0" keyTimes="0;1" dur="1.6393442622950818s" begin="-0.9928422996998382s" repeatCount="indefinite"></animate>
  </rect>
</g><g transform="rotate(141.9718309859155 50 50)">
  <rect x="46.5" y="24.5" rx="3.5" ry="2.5" width="7" height="5" fill="#6a6a6a">
    <animate attributeName="opacity" values="1;0" keyTimes="0;1" dur="1.6393442622950818s" begin="-0.9697529438928651s" repeatCount="indefinite"></animate>
  </rect>
</g><g transform="rotate(147.04225352112675 50 50)">
  <rect x="46.5" y="24.5" rx="3.5" ry="2.5" width="7" height="5" fill="#6a6a6a">
    <animate attributeName="opacity" values="1;0" keyTimes="0;1" dur="1.6393442622950818s" begin="-0.9466635880858922s" repeatCount="indefinite"></animate>
  </rect>
</g><g transform="rotate(152.11267605633802 50 50)">
  <rect x="46.5" y="24.5" rx="3.5" ry="2.5" width="7" height="5" fill="#6a6a6a">
    <animate attributeName="opacity" values="1;0" keyTimes="0;1" dur="1.6393442622950818s" begin="-0.9235742322789192s" repeatCount="indefinite"></animate>
  </rect>
</g><g transform="rotate(157.18309859154928 50 50)">
  <rect x="46.5" y="24.5" rx="3.5" ry="2.5" width="7" height="5" fill="#6a6a6a">
    <animate attributeName="opacity" values="1;0" keyTimes="0;1" dur="1.6393442622950818s" begin="-0.9004848764719462s" repeatCount="indefinite"></animate>
  </rect>
</g><g transform="rotate(162.25352112676057 50 50)">
  <rect x="46.5" y="24.5" rx="3.5" ry="2.5" width="7" height="5" fill="#6a6a6a">
    <animate attributeName="opacity" values="1;0" keyTimes="0;1" dur="1.6393442622950818s" begin="-0.8773955206649733s" repeatCount="indefinite"></animate>
  </rect>
</g><g transform="rotate(167.32394366197184 50 50)">
  <rect x="46.5" y="24.5" rx="3.5" ry="2.5" width="7" height="5" fill="#6a6a6a">
    <animate attributeName="opacity" values="1;0" keyTimes="0;1" dur="1.6393442622950818s" begin="-0.8543061648580003s" repeatCount="indefinite"></animate>
  </rect>
</g><g transform="rotate(172.3943661971831 50 50)">
  <rect x="46.5" y="24.5" rx="3.5" ry="2.5" width="7" height="5" fill="#6a6a6a">
    <animate attributeName="opacity" values="1;0" keyTimes="0;1" dur="1.6393442622950818s" begin="-0.8312168090510273s" repeatCount="indefinite"></animate>
  </rect>
</g><g transform="rotate(177.46478873239437 50 50)">
  <rect x="46.5" y="24.5" rx="3.5" ry="2.5" width="7" height="5" fill="#6a6a6a">
    <animate attributeName="opacity" values="1;0" keyTimes="0;1" dur="1.6393442622950818s" begin="-0.8081274532440543s" repeatCount="indefinite"></animate>
  </rect>
</g><g transform="rotate(182.53521126760563 50 50)">
  <rect x="46.5" y="24.5" rx="3.5" ry="2.5" width="7" height="5" fill="#6a6a6a">
    <animate attributeName="opacity" values="1;0" keyTimes="0;1" dur="1.6393442622950818s" begin="-0.7850380974370813s" repeatCount="indefinite"></animate>
  </rect>
</g><g transform="rotate(187.6056338028169 50 50)">
  <rect x="46.5" y="24.5" rx="3.5" ry="2.5" width="7" height="5" fill="#6a6a6a">
    <animate attributeName="opacity" values="1;0" keyTimes="0;1" dur="1.6393442622950818s" begin="-0.7619487416301084s" repeatCount="indefinite"></animate>
  </rect>
</g><g transform="rotate(192.67605633802816 50 50)">
  <rect x="46.5" y="24.5" rx="3.5" ry="2.5" width="7" height="5" fill="#6a6a6a">
    <animate attributeName="opacity" values="1;0" keyTimes="0;1" dur="1.6393442622950818s" begin="-0.7388593858231354s" repeatCount="indefinite"></animate>
  </rect>
</g><g transform="rotate(197.74647887323943 50 50)">
  <rect x="46.5" y="24.5" rx="3.5" ry="2.5" width="7" height="5" fill="#6a6a6a">
    <animate attributeName="opacity" values="1;0" keyTimes="0;1" dur="1.6393442622950818s" begin="-0.7157700300161624s" repeatCount="indefinite"></animate>
  </rect>
</g><g transform="rotate(202.81690140845072 50 50)">
  <rect x="46.5" y="24.5" rx="3.5" ry="2.5" width="7" height="5" fill="#6a6a6a">
    <animate attributeName="opacity" values="1;0" keyTimes="0;1" dur="1.6393442622950818s" begin="-0.6926806742091894s" repeatCount="indefinite"></animate>
  </rect>
</g><g transform="rotate(207.88732394366198 50 50)">
  <rect x="46.5" y="24.5" rx="3.5" ry="2.5" width="7" height="5" fill="#6a6a6a">
    <animate attributeName="opacity" values="1;0" keyTimes="0;1" dur="1.6393442622950818s" begin="-0.6695913184022164s" repeatCount="indefinite"></animate>
  </rect>
</g><g transform="rotate(212.95774647887325 50 50)">
  <rect x="46.5" y="24.5" rx="3.5" ry="2.5" width="7" height="5" fill="#6a6a6a">
    <animate attributeName="opacity" values="1;0" keyTimes="0;1" dur="1.6393442622950818s" begin="-0.6465019625952435s" repeatCount="indefinite"></animate>
  </rect>
</g><g transform="rotate(218.0281690140845 50 50)">
  <rect x="46.5" y="24.5" rx="3.5" ry="2.5" width="7" height="5" fill="#6a6a6a">
    <animate attributeName="opacity" values="1;0" keyTimes="0;1" dur="1.6393442622950818s" begin="-0.6234126067882705s" repeatCount="indefinite"></animate>
  </rect>
</g><g transform="rotate(223.09859154929578 50 50)">
  <rect x="46.5" y="24.5" rx="3.5" ry="2.5" width="7" height="5" fill="#6a6a6a">
    <animate attributeName="opacity" values="1;0" keyTimes="0;1" dur="1.6393442622950818s" begin="-0.6003232509812975s" repeatCount="indefinite"></animate>
  </rect>
</g><g transform="rotate(228.16901408450704 50 50)">
  <rect x="46.5" y="24.5" rx="3.5" ry="2.5" width="7" height="5" fill="#6a6a6a">
    <animate attributeName="opacity" values="1;0" keyTimes="0;1" dur="1.6393442622950818s" begin="-0.5772338951743246s" repeatCount="indefinite"></animate>
  </rect>
</g><g transform="rotate(233.2394366197183 50 50)">
  <rect x="46.5" y="24.5" rx="3.5" ry="2.5" width="7" height="5" fill="#6a6a6a">
    <animate attributeName="opacity" values="1;0" keyTimes="0;1" dur="1.6393442622950818s" begin="-0.5541445393673515s" repeatCount="indefinite"></animate>
  </rect>
</g><g transform="rotate(238.30985915492957 50 50)">
  <rect x="46.5" y="24.5" rx="3.5" ry="2.5" width="7" height="5" fill="#6a6a6a">
    <animate attributeName="opacity" values="1;0" keyTimes="0;1" dur="1.6393442622950818s" begin="-0.5310551835603785s" repeatCount="indefinite"></animate>
  </rect>
</g><g transform="rotate(243.38028169014083 50 50)">
  <rect x="46.5" y="24.5" rx="3.5" ry="2.5" width="7" height="5" fill="#6a6a6a">
    <animate attributeName="opacity" values="1;0" keyTimes="0;1" dur="1.6393442622950818s" begin="-0.5079658277534056s" repeatCount="indefinite"></animate>
  </rect>
</g><g transform="rotate(248.45070422535213 50 50)">
  <rect x="46.5" y="24.5" rx="3.5" ry="2.5" width="7" height="5" fill="#6a6a6a">
    <animate attributeName="opacity" values="1;0" keyTimes="0;1" dur="1.6393442622950818s" begin="-0.4848764719464326s" repeatCount="indefinite"></animate>
  </rect>
</g><g transform="rotate(253.5211267605634 50 50)">
  <rect x="46.5" y="24.5" rx="3.5" ry="2.5" width="7" height="5" fill="#6a6a6a">
    <animate attributeName="opacity" values="1;0" keyTimes="0;1" dur="1.6393442622950818s" begin="-0.4617871161394596s" repeatCount="indefinite"></animate>
  </rect>
</g><g transform="rotate(258.59154929577466 50 50)">
  <rect x="46.5" y="24.5" rx="3.5" ry="2.5" width="7" height="5" fill="#6a6a6a">
    <animate attributeName="opacity" values="1;0" keyTimes="0;1" dur="1.6393442622950818s" begin="-0.43869776033248664s" repeatCount="indefinite"></animate>
  </rect>
</g><g transform="rotate(263.6619718309859 50 50)">
  <rect x="46.5" y="24.5" rx="3.5" ry="2.5" width="7" height="5" fill="#6a6a6a">
    <animate attributeName="opacity" values="1;0" keyTimes="0;1" dur="1.6393442622950818s" begin="-0.4156084045255137s" repeatCount="indefinite"></animate>
  </rect>
</g><g transform="rotate(268.7323943661972 50 50)">
  <rect x="46.5" y="24.5" rx="3.5" ry="2.5" width="7" height="5" fill="#6a6a6a">
    <animate attributeName="opacity" values="1;0" keyTimes="0;1" dur="1.6393442622950818s" begin="-0.39251904871854065s" repeatCount="indefinite"></animate>
  </rect>
</g><g transform="rotate(273.80281690140845 50 50)">
  <rect x="46.5" y="24.5" rx="3.5" ry="2.5" width="7" height="5" fill="#6a6a6a">
    <animate attributeName="opacity" values="1;0" keyTimes="0;1" dur="1.6393442622950818s" begin="-0.3694296929115677s" repeatCount="indefinite"></animate>
  </rect>
</g><g transform="rotate(278.8732394366197 50 50)">
  <rect x="46.5" y="24.5" rx="3.5" ry="2.5" width="7" height="5" fill="#6a6a6a">
    <animate attributeName="opacity" values="1;0" keyTimes="0;1" dur="1.6393442622950818s" begin="-0.3463403371045947s" repeatCount="indefinite"></animate>
  </rect>
</g><g transform="rotate(283.943661971831 50 50)">
  <rect x="46.5" y="24.5" rx="3.5" ry="2.5" width="7" height="5" fill="#6a6a6a">
    <animate attributeName="opacity" values="1;0" keyTimes="0;1" dur="1.6393442622950818s" begin="-0.32325098129762175s" repeatCount="indefinite"></animate>
  </rect>
</g><g transform="rotate(289.01408450704224 50 50)">
  <rect x="46.5" y="24.5" rx="3.5" ry="2.5" width="7" height="5" fill="#6a6a6a">
    <animate attributeName="opacity" values="1;0" keyTimes="0;1" dur="1.6393442622950818s" begin="-0.30016162549064873s" repeatCount="indefinite"></animate>
  </rect>
</g><g transform="rotate(294.0845070422535 50 50)">
  <rect x="46.5" y="24.5" rx="3.5" ry="2.5" width="7" height="5" fill="#6a6a6a">
    <animate attributeName="opacity" values="1;0" keyTimes="0;1" dur="1.6393442622950818s" begin="-0.27707226968367576s" repeatCount="indefinite"></animate>
  </rect>
</g><g transform="rotate(299.15492957746477 50 50)">
  <rect x="46.5" y="24.5" rx="3.5" ry="2.5" width="7" height="5" fill="#6a6a6a">
    <animate attributeName="opacity" values="1;0" keyTimes="0;1" dur="1.6393442622950818s" begin="-0.2539829138767028s" repeatCount="indefinite"></animate>
  </rect>
</g><g transform="rotate(304.22535211267603 50 50)">
  <rect x="46.5" y="24.5" rx="3.5" ry="2.5" width="7" height="5" fill="#6a6a6a">
    <animate attributeName="opacity" values="1;0" keyTimes="0;1" dur="1.6393442622950818s" begin="-0.2308935580697298s" repeatCount="indefinite"></animate>
  </rect>
</g><g transform="rotate(309.2957746478873 50 50)">
  <rect x="46.5" y="24.5" rx="3.5" ry="2.5" width="7" height="5" fill="#6a6a6a">
    <animate attributeName="opacity" values="1;0" keyTimes="0;1" dur="1.6393442622950818s" begin="-0.20780420226275684s" repeatCount="indefinite"></animate>
  </rect>
</g><g transform="rotate(314.36619718309856 50 50)">
  <rect x="46.5" y="24.5" rx="3.5" ry="2.5" width="7" height="5" fill="#6a6a6a">
    <animate attributeName="opacity" values="1;0" keyTimes="0;1" dur="1.6393442622950818s" begin="-0.18471484645578384s" repeatCount="indefinite"></animate>
  </rect>
</g><g transform="rotate(319.4366197183099 50 50)">
  <rect x="46.5" y="24.5" rx="3.5" ry="2.5" width="7" height="5" fill="#6a6a6a">
    <animate attributeName="opacity" values="1;0" keyTimes="0;1" dur="1.6393442622950818s" begin="-0.16162549064881088s" repeatCount="indefinite"></animate>
  </rect>
</g><g transform="rotate(324.50704225352115 50 50)">
  <rect x="46.5" y="24.5" rx="3.5" ry="2.5" width="7" height="5" fill="#6a6a6a">
    <animate attributeName="opacity" values="1;0" keyTimes="0;1" dur="1.6393442622950818s" begin="-0.13853613484183788s" repeatCount="indefinite"></animate>
  </rect>
</g><g transform="rotate(329.5774647887324 50 50)">
  <rect x="46.5" y="24.5" rx="3.5" ry="2.5" width="7" height="5" fill="#6a6a6a">
    <animate attributeName="opacity" values="1;0" keyTimes="0;1" dur="1.6393442622950818s" begin="-0.1154467790348649s" repeatCount="indefinite"></animate>
  </rect>
</g><g transform="rotate(334.6478873239437 50 50)">
  <rect x="46.5" y="24.5" rx="3.5" ry="2.5" width="7" height="5" fill="#6a6a6a">
    <animate attributeName="opacity" values="1;0" keyTimes="0;1" dur="1.6393442622950818s" begin="-0.09235742322789192s" repeatCount="indefinite"></animate>
  </rect>
</g><g transform="rotate(339.71830985915494 50 50)">
  <rect x="46.5" y="24.5" rx="3.5" ry="2.5" width="7" height="5" fill="#6a6a6a">
    <animate attributeName="opacity" values="1;0" keyTimes="0;1" dur="1.6393442622950818s" begin="-0.06926806742091894s" repeatCount="indefinite"></animate>
  </rect>
</g><g transform="rotate(344.7887323943662 50 50)">
  <rect x="46.5" y="24.5" rx="3.5" ry="2.5" width="7" height="5" fill="#6a6a6a">
    <animate attributeName="opacity" values="1;0" keyTimes="0;1" dur="1.6393442622950818s" begin="-0.04617871161394596s" repeatCount="indefinite"></animate>
  </rect>
</g><g transform="rotate(349.85915492957747 50 50)">
  <rect x="46.5" y="24.5" rx="3.5" ry="2.5" width="7" height="5" fill="#6a6a6a">
    <animate attributeName="opacity" values="1;0" keyTimes="0;1" dur="1.6393442622950818s" begin="-0.02308935580697298s" repeatCount="indefinite"></animate>
  </rect>
</g><g transform="rotate(354.92957746478874 50 50)">
  <rect x="46.5" y="24.5" rx="3.5" ry="2.5" width="7" height="5" fill="#6a6a6a">
    <animate attributeName="opacity" values="1;0" keyTimes="0;1" dur="1.6393442622950818s" begin="0s" repeatCount="indefinite"></animate>
  </rect>
</g>
<!-- [ldio] generated by https://loading.io/ --></svg>